<?xml version="1.0" standalone="no"?>
<!DOCTYPE svg PUBLIC "-//W3C//DTD SVG 20010904//EN"
 "http://www.w3.org/TR/2001/REC-SVG-20010904/DTD/svg10.dtd">
<svg version="1.0" xmlns="http://www.w3.org/2000/svg"
 width="395.000000pt" height="395.000000pt" viewBox="0 0 395.000000 395.000000"
 preserveAspectRatio="xMidYMid meet">
<metadata>
Created by potrace 1.14, written by Peter Selinger 2001-2017
</metadata>
<g transform="translate(0.000000,395.000000) scale(0.100000,-0.100000)"
fill="#000000" stroke="none">
<path d="M1879 3946 c-2 -2 -35 -6 -74 -9 -38 -4 -95 -11 -125 -17 -30 -7 -68
-14 -85 -17 -28 -5 -172 -47 -205 -60 -8 -3 -21 -7 -28 -9 -63 -13 -380 -193
-464 -264 -91 -76 -187 -168 -257 -246 -59 -65 -221 -292 -221 -308 0 -3 -14
-28 -31 -57 -61 -103 -167 -382 -185 -486 -3 -15 -9 -44 -14 -63 -13 -54 -24
-122 -37 -245 -12 -118 -7 -366 11 -485 2 -14 7 -44 10 -67 32 -207 155 -537
262 -703 15 -25 34 -54 40 -66 6 -12 41 -61 78 -110 100 -133 220 -253 380
-381 157 -126 487 -276 676 -308 19 -3 44 -8 54 -12 46 -14 226 -29 325 -28
102 2 249 13 262 21 4 2 24 6 45 10 22 3 57 10 79 16 22 5 47 12 55 13 91 20
301 110 429 184 247 145 498 396 653 656 25 41 129 251 149 300 43 104 102
321 115 420 3 22 7 47 9 55 17 64 25 368 12 480 -16 141 -20 171 -38 255 -11
50 -22 99 -24 109 -8 33 -47 148 -77 226 -128 326 -344 615 -613 821 -49 38
-95 74 -102 79 -7 6 -15 10 -19 10 -4 0 -15 6 -23 14 -9 7 -47 31 -86 51 -38
21 -74 41 -80 45 -19 13 -200 83 -265 102 -75 21 -228 56 -250 56 -8 0 -35 3
-60 7 -49 7 -276 16 -281 11z"/>
</g>
</svg>
